<?xml version="1.0" encoding="utf-8"?>
<!-- Generator: Adobe Illustrator 22.0.0, SVG Export Plug-In . SVG Version: 6.00 Build 0)  -->
<svg version="1.1" id="Layer_1" xmlns="http://www.w3.org/2000/svg" xmlns:xlink="http://www.w3.org/1999/xlink" x="0px" y="0px"
	 viewBox="0 0 285.7 88.3" style="enable-background:new 0 0 285.7 88.3;" xml:space="preserve">
<style type="text/css">
	.st0{fill:#FFFFFF;}
</style>
<path class="st0" d="M162,87.9h22.8V27.1c0-28.3-21.8-26.8-24.1-27.1H99.4c0,0,5.7,2.1,5.7,9.9v78h22.6V14.5h26.8
	c2.5,0,7.5,1.9,7.5,9V87.9L162,87.9z M285.7,87.9V0.2h-22.8v73.2h-26.6c-2.7,0-7.5-1.7-7.5-9V0.2h-28.5c0,0,6.1,1.3,6.1,9.9v50.8
	c0,28.7,23.9,27.1,23.9,27.1H285.7L285.7,87.9z M29.3,36.3l39.2,52h26.6l-41.1-52L93.5,0H70.2L29.8,36.1L29.3,36.3z M28.7,0.2H0
	c0,0,5.7,1.3,5.7,10.1v77.4h23.1V0.2L28.7,0.2z"/>
</svg>
